<?xml version="1.0" encoding="utf-8"?>
<!-- Generator: Adobe Illustrator 26.0.3, SVG Export Plug-In . SVG Version: 6.00 Build 0)  -->
<svg version="1.1" id="Calque_1" xmlns="http://www.w3.org/2000/svg" xmlns:xlink="http://www.w3.org/1999/xlink" x="0px" y="0px"
	 viewBox="0 0 506.5 138.4" style="enable-background:new 0 0 506.5 138.4;" xml:space="preserve">
<style type="text/css">
	.st0{fill:#FFFFFF;}
	.st1{fill:#96CCA3;}
	.st2{fill:#009A96;}
	.st3{fill:#96CCA3;stroke:#96CCA3;stroke-width:1.5168;stroke-miterlimit:10;}
	.st4{fill:#009A96;stroke:#009A96;stroke-width:1.5168;stroke-miterlimit:10;}
</style>
<g>
	<g>
		<path class="st0" d="M150.6,136.1c-1.4,1.5-3,2.2-4.9,2.2c-1.1,0-2.2-0.2-3.1-0.7c-1-0.5-1.8-1.1-2.5-1.9
			c-0.7-0.8-1.3-1.7-1.7-2.7c-0.4-1-0.6-2.1-0.6-3.3c0-1.1,0.2-2.2,0.6-3.2c0.4-1,1-1.9,1.7-2.7c0.7-0.8,1.5-1.4,2.5-1.8
			c1-0.4,2-0.7,3.2-0.7c1.6,0,3,0.3,4,1c1.1,0.7,1.9,1.6,2.5,2.7l-2,1.5c-0.5-0.9-1.1-1.6-1.9-2.1c-0.8-0.5-1.7-0.7-2.6-0.7
			c-0.8,0-1.5,0.2-2.1,0.5c-0.6,0.3-1.2,0.8-1.7,1.3c-0.5,0.6-0.8,1.2-1.1,1.9c-0.2,0.7-0.4,1.5-0.4,2.3c0,0.8,0.1,1.6,0.4,2.4
			c0.3,0.7,0.7,1.4,1.1,1.9c0.5,0.6,1.1,1,1.7,1.3c0.7,0.3,1.4,0.5,2.1,0.5c0.8,0,1.7-0.2,2.4-0.6c0.8-0.4,1.5-1,2.2-1.9v-1.8h-3.5
			v-2h5.7v8.5h-2.2V136.1z"/>
		<path class="st0" d="M162.2,138.4c-1,0-1.9-0.2-2.6-0.5c-0.8-0.3-1.4-0.8-2-1.4c-0.6-0.6-1-1.3-1.3-2c-0.3-0.8-0.4-1.6-0.4-2.4
			s0.1-1.7,0.4-2.4c0.3-0.8,0.7-1.5,1.3-2c0.6-0.6,1.2-1,2-1.4c0.8-0.3,1.6-0.5,2.6-0.5c1,0,1.8,0.2,2.6,0.5c0.8,0.3,1.4,0.8,2,1.4
			c0.6,0.6,1,1.3,1.3,2c0.3,0.8,0.4,1.6,0.4,2.4s-0.1,1.7-0.4,2.4c-0.3,0.8-0.7,1.5-1.3,2c-0.6,0.6-1.2,1-2,1.4
			C164,138.3,163.1,138.4,162.2,138.4z M158.5,132.1c0,0.6,0.1,1.1,0.3,1.7c0.2,0.5,0.4,0.9,0.8,1.3c0.3,0.4,0.7,0.7,1.2,0.9
			c0.4,0.2,0.9,0.3,1.5,0.3s1-0.1,1.5-0.3c0.4-0.2,0.8-0.5,1.2-0.9c0.3-0.4,0.6-0.8,0.8-1.3c0.2-0.5,0.3-1.1,0.3-1.7
			c0-0.6-0.1-1.1-0.3-1.6c-0.2-0.5-0.4-1-0.8-1.3c-0.3-0.4-0.7-0.7-1.2-0.9c-0.4-0.2-0.9-0.3-1.5-0.3c-0.5,0-1,0.1-1.4,0.3
			c-0.4,0.2-0.8,0.5-1.2,0.9c-0.3,0.4-0.6,0.8-0.8,1.3C158.6,130.9,158.5,131.5,158.5,132.1z"/>
		<path class="st0" d="M171.9,121h2.6v13.7c0,0.5,0.1,0.8,0.4,1.1c0.2,0.3,0.6,0.4,1,0.4c0.2,0,0.4,0,0.6-0.1
			c0.2-0.1,0.4-0.1,0.6-0.2l0.4,2c-0.4,0.2-0.8,0.3-1.3,0.4c-0.5,0.1-1,0.2-1.4,0.2c-0.9,0-1.6-0.2-2.1-0.7
			c-0.5-0.5-0.7-1.2-0.7-2.1V121z"/>
		<path class="st0" d="M180.8,138.2v-10h-1.7v-2h1.7v-0.5c0-1.5,0.4-2.7,1.1-3.6c0.7-0.9,1.7-1.3,2.9-1.3c0.5,0,1,0.1,1.5,0.2
			c0.5,0.1,1,0.3,1.4,0.6l-0.6,1.9c-0.2-0.1-0.5-0.3-0.8-0.4c-0.3-0.1-0.6-0.1-0.9-0.1c-0.6,0-1.1,0.2-1.4,0.7s-0.5,1.1-0.5,2v0.6
			h3.2v2h-3.2v10H180.8z"/>
		<path class="st0" d="M194.5,138.4c-1,0-1.8-0.2-2.6-0.5c-0.8-0.3-1.5-0.8-2-1.4c-0.6-0.6-1-1.3-1.3-2c-0.3-0.8-0.5-1.6-0.5-2.5
			s0.2-1.7,0.5-2.5c0.3-0.8,0.7-1.5,1.3-2.1c0.6-0.6,1.2-1.1,2-1.4c0.8-0.3,1.7-0.5,2.6-0.5c1,0,1.8,0.2,2.6,0.5
			c0.8,0.3,1.4,0.8,2,1.4c0.6,0.6,1,1.2,1.3,2c0.3,0.8,0.4,1.6,0.4,2.4c0,0.2,0,0.4,0,0.5c0,0.2,0,0.3,0,0.4h-9.9
			c0,0.6,0.2,1,0.4,1.5c0.2,0.4,0.5,0.8,0.8,1.1c0.3,0.3,0.7,0.6,1.2,0.7c0.4,0.2,0.9,0.3,1.4,0.3c0.3,0,0.7,0,1-0.1
			c0.3-0.1,0.6-0.2,0.9-0.4c0.3-0.2,0.5-0.4,0.8-0.6c0.2-0.2,0.4-0.5,0.5-0.8l2.2,0.6c-0.4,0.9-1.1,1.7-2.1,2.3
			C196.9,138.1,195.8,138.4,194.5,138.4z M198.2,131.1c0-0.5-0.2-1-0.4-1.4c-0.2-0.4-0.5-0.8-0.8-1.1c-0.3-0.3-0.7-0.5-1.2-0.7
			c-0.4-0.2-0.9-0.3-1.4-0.3c-0.5,0-0.9,0.1-1.4,0.3c-0.4,0.2-0.8,0.4-1.1,0.7c-0.3,0.3-0.6,0.7-0.8,1.1c-0.2,0.4-0.3,0.9-0.4,1.4
			H198.2z"/>
		<path class="st0" d="M215.9,138.4c-0.8,0-1.6-0.2-2.3-0.5c-0.7-0.3-1.3-0.8-1.8-1.4c-0.5-0.6-0.9-1.3-1.2-2
			c-0.3-0.8-0.4-1.6-0.4-2.5c0-0.9,0.1-1.7,0.4-2.4c0.3-0.8,0.7-1.4,1.2-2c0.5-0.6,1.1-1,1.7-1.4c0.7-0.3,1.4-0.5,2.2-0.5
			c1,0,1.9,0.2,2.6,0.7c0.8,0.5,1.3,1.1,1.8,1.8V121h2.6v14.2c0,0.3,0.1,0.5,0.2,0.6c0.1,0.1,0.3,0.2,0.6,0.2v2.2
			c-0.3,0-0.5,0.1-0.6,0.1c-0.2,0-0.3,0-0.4,0c-0.5,0-0.9-0.1-1.3-0.4c-0.3-0.3-0.5-0.6-0.5-1l0-0.9c-0.5,0.8-1.1,1.4-1.9,1.8
			C217.8,138.2,216.9,138.4,215.9,138.4z M216.6,136.2c0.4,0,0.8-0.1,1.1-0.2c0.4-0.1,0.7-0.3,1-0.5c0.3-0.2,0.6-0.5,0.8-0.8
			c0.2-0.3,0.4-0.6,0.5-1v-3.2c-0.1-0.4-0.3-0.8-0.6-1.1s-0.6-0.6-0.9-0.8c-0.3-0.2-0.7-0.4-1.1-0.5c-0.4-0.1-0.7-0.2-1.1-0.2
			c-0.5,0-1,0.1-1.4,0.4c-0.4,0.2-0.8,0.6-1.1,0.9c-0.3,0.4-0.6,0.8-0.7,1.3c-0.2,0.5-0.3,1-0.3,1.6c0,0.6,0.1,1.1,0.3,1.6
			c0.2,0.5,0.5,0.9,0.8,1.3c0.3,0.4,0.7,0.7,1.2,0.9C215.6,136.1,216,136.2,216.6,136.2z"/>
		<path class="st0" d="M230.8,138.4c-1.3,0-2.3-0.4-2.9-1.3c-0.7-0.8-1-2.1-1-3.8v-7.6h2.6v7c0,2.2,0.8,3.3,2.4,3.3
			c0.7,0,1.4-0.2,2.1-0.7c0.7-0.5,1.2-1.1,1.5-2v-7.7h2.6v9.3c0,0.3,0.1,0.5,0.2,0.6c0.1,0.1,0.3,0.2,0.6,0.2v2.2
			c-0.3,0-0.5,0.1-0.7,0.1c-0.2,0-0.3,0-0.5,0c-0.5,0-0.9-0.1-1.2-0.4s-0.5-0.6-0.5-1l0-1.2c-0.6,0.9-1.3,1.6-2.1,2
			C232.8,138.2,231.8,138.4,230.8,138.4z"/>
		<path class="st0" d="M263.7,138.2v-12.1l-5,9.1h-1.5l-5-9.1v12.1h-2.6v-16.8h2.8l5.5,10.2l5.5-10.2h2.8v16.8H263.7z"/>
		<path class="st0" d="M276.3,138.4c-1,0-1.9-0.2-2.6-0.5c-0.8-0.3-1.4-0.8-2-1.4c-0.6-0.6-1-1.3-1.3-2c-0.3-0.8-0.4-1.6-0.4-2.4
			s0.1-1.7,0.4-2.4c0.3-0.8,0.7-1.5,1.3-2c0.6-0.6,1.2-1,2-1.4c0.8-0.3,1.6-0.5,2.6-0.5c1,0,1.8,0.2,2.6,0.5c0.8,0.3,1.4,0.8,2,1.4
			c0.6,0.6,1,1.3,1.3,2c0.3,0.8,0.4,1.6,0.4,2.4s-0.1,1.7-0.4,2.4c-0.3,0.8-0.7,1.5-1.3,2c-0.6,0.6-1.2,1-2,1.4
			C278.1,138.3,277.3,138.4,276.3,138.4z M272.6,132.1c0,0.6,0.1,1.1,0.3,1.7c0.2,0.5,0.4,0.9,0.8,1.3c0.3,0.4,0.7,0.7,1.2,0.9
			c0.4,0.2,0.9,0.3,1.5,0.3s1-0.1,1.5-0.3c0.4-0.2,0.8-0.5,1.2-0.9c0.3-0.4,0.6-0.8,0.8-1.3c0.2-0.5,0.3-1.1,0.3-1.7
			c0-0.6-0.1-1.1-0.3-1.6c-0.2-0.5-0.4-1-0.8-1.3c-0.3-0.4-0.7-0.7-1.2-0.9c-0.4-0.2-0.9-0.3-1.5-0.3c-0.5,0-1,0.1-1.4,0.3
			c-0.4,0.2-0.8,0.5-1.2,0.9c-0.3,0.4-0.6,0.8-0.8,1.3C272.7,130.9,272.6,131.5,272.6,132.1z"/>
		<path class="st0" d="M293,128.1c-1,0-1.9,0.3-2.7,0.7c-0.8,0.4-1.3,1.1-1.7,1.9v7.6H286v-12.3h2.4v2.8c0.4-0.8,1-1.5,1.7-2
			c0.7-0.5,1.4-0.8,2.2-0.8c0.2,0,0.3,0,0.4,0c0.1,0,0.2,0,0.3,0V128.1z"/>
		<path class="st0" d="M302.6,138.4c-0.9,0-1.8-0.2-2.6-0.7c-0.8-0.4-1.4-1.1-1.8-1.8v2.2h-2.3V121h2.6v7.2c0.5-0.8,1.1-1.4,1.8-1.9
			c0.7-0.5,1.6-0.7,2.6-0.7c0.8,0,1.6,0.2,2.2,0.5c0.7,0.4,1.3,0.8,1.7,1.4c0.5,0.6,0.8,1.3,1.1,2.1c0.3,0.8,0.4,1.6,0.4,2.4
			c0,0.9-0.1,1.7-0.4,2.5c-0.3,0.8-0.7,1.4-1.2,2s-1.1,1-1.9,1.4C304.2,138.3,303.4,138.4,302.6,138.4z M301.9,136.2
			c0.6,0,1.1-0.1,1.6-0.3c0.5-0.2,0.9-0.5,1.2-0.9c0.3-0.4,0.6-0.8,0.8-1.3c0.2-0.5,0.3-1,0.3-1.6c0-0.6-0.1-1.1-0.3-1.6
			c-0.2-0.5-0.4-1-0.8-1.3c-0.3-0.4-0.7-0.7-1.2-0.9c-0.4-0.2-0.9-0.4-1.5-0.4c-0.8,0-1.5,0.3-2.1,0.8c-0.6,0.5-1.1,1.1-1.4,1.9v3.3
			c0.1,0.4,0.3,0.7,0.5,1c0.2,0.3,0.5,0.5,0.8,0.8c0.3,0.2,0.7,0.4,1,0.5C301.2,136.2,301.6,136.2,301.9,136.2z"/>
		<path class="st0" d="M311.8,123.8V121h2.6v2.9H311.8z M311.8,138.2v-12.3h2.6v12.3H311.8z"/>
		<path class="st0" d="M329.6,138.2H327v-6.9c0-1.1-0.2-2-0.6-2.5c-0.4-0.5-1-0.8-1.7-0.8c-0.4,0-0.7,0.1-1.1,0.2
			c-0.4,0.1-0.7,0.3-1,0.6c-0.3,0.3-0.6,0.6-0.9,0.9c-0.3,0.4-0.4,0.7-0.6,1.2v7.3h-2.6V121h2.6v7.4c0.5-0.8,1.1-1.5,1.9-2
			c0.8-0.5,1.7-0.7,2.7-0.7c0.8,0,1.4,0.1,1.9,0.4c0.5,0.3,0.9,0.6,1.2,1.1c0.3,0.5,0.5,1,0.6,1.6c0.1,0.6,0.2,1.2,0.2,1.9V138.2z"
			/>
		<path class="st0" d="M337,138.4c-0.6,0-1.2-0.1-1.7-0.3c-0.5-0.2-1-0.5-1.3-0.8c-0.4-0.3-0.7-0.8-0.9-1.2c-0.2-0.5-0.3-1-0.3-1.5
			c0-0.6,0.1-1.1,0.4-1.6c0.3-0.5,0.6-0.9,1.1-1.2c0.5-0.3,1-0.6,1.7-0.8c0.6-0.2,1.3-0.3,2.1-0.3c0.6,0,1.2,0.1,1.7,0.2
			c0.6,0.1,1.1,0.2,1.5,0.4v-0.8c0-0.9-0.3-1.6-0.8-2.1c-0.5-0.5-1.3-0.8-2.2-0.8c-0.7,0-1.3,0.1-1.9,0.4c-0.6,0.2-1.3,0.6-2,1.1
			l-0.8-1.7c1.6-1.1,3.2-1.6,5-1.6c1.7,0,3,0.4,4,1.3c0.9,0.9,1.4,2.1,1.4,3.7v4.5c0,0.6,0.2,0.8,0.7,0.8v2.2
			c-0.3,0-0.5,0.1-0.6,0.1c-0.2,0-0.4,0-0.5,0c-0.5,0-0.9-0.1-1.2-0.4c-0.3-0.3-0.4-0.6-0.5-1l-0.1-0.8c-0.6,0.7-1.2,1.3-2,1.7
			C338.8,138.2,337.9,138.4,337,138.4z M337.7,136.5c0.6,0,1.2-0.1,1.8-0.3c0.6-0.2,1-0.5,1.3-1c0.3-0.3,0.5-0.6,0.5-0.9v-1.6
			c-0.4-0.2-0.9-0.3-1.4-0.4c-0.5-0.1-1-0.1-1.5-0.1c-0.9,0-1.7,0.2-2.3,0.6c-0.6,0.4-0.9,0.9-0.9,1.6c0,0.6,0.2,1.1,0.7,1.5
			C336.4,136.3,337,136.5,337.7,136.5z"/>
		<path class="st0" d="M359.2,138.2h-2.6v-6.9c0-1.2-0.2-2-0.6-2.5c-0.4-0.5-0.9-0.8-1.6-0.8c-0.4,0-0.8,0.1-1.1,0.2
			c-0.4,0.1-0.7,0.3-1.1,0.6c-0.3,0.3-0.6,0.6-0.9,0.9c-0.3,0.4-0.5,0.7-0.6,1.2v7.3h-2.6v-12.3h2.4v2.5c0.5-0.8,1.2-1.5,2.1-2
			c0.9-0.5,1.9-0.7,3-0.7c0.7,0,1.3,0.1,1.8,0.4c0.5,0.3,0.8,0.6,1.1,1.1c0.3,0.5,0.5,1,0.6,1.6c0.1,0.6,0.2,1.2,0.2,1.9V138.2z"/>
		<path class="st0" d="M381.5,138.2l-1.5-1.6c-0.7,0.6-1.5,1.1-2.3,1.4c-0.8,0.3-1.7,0.5-2.6,0.5c-0.8,0-1.6-0.1-2.2-0.4
			c-0.7-0.3-1.3-0.6-1.7-1c-0.5-0.4-0.9-0.9-1.1-1.5s-0.4-1.2-0.4-1.9c0-0.5,0.1-1,0.2-1.5c0.2-0.5,0.4-0.9,0.7-1.3
			c0.3-0.4,0.6-0.8,1-1.1c0.4-0.3,0.8-0.6,1.2-0.9c-0.4-0.4-0.7-0.8-0.9-1.1c-0.2-0.3-0.4-0.6-0.6-0.9c-0.1-0.3-0.3-0.6-0.3-0.8
			c-0.1-0.3-0.1-0.6-0.1-0.9c0-0.6,0.1-1.1,0.3-1.6c0.2-0.5,0.5-0.9,0.9-1.2c0.4-0.3,0.9-0.6,1.4-0.8c0.5-0.2,1.1-0.3,1.8-0.3
			c0.6,0,1.1,0.1,1.6,0.2c0.5,0.2,1,0.4,1.4,0.7c0.4,0.3,0.7,0.7,0.9,1.1c0.2,0.4,0.3,1,0.3,1.5c0,0.5-0.1,0.9-0.2,1.3
			c-0.2,0.4-0.4,0.8-0.7,1.1c-0.3,0.4-0.6,0.7-1,1s-0.8,0.6-1.2,0.9l3.8,4c0.3-0.6,0.5-1.1,0.6-1.8c0.1-0.6,0.2-1.3,0.2-2h2.1
			c0,1.1-0.1,2.1-0.4,3c-0.3,0.9-0.6,1.7-1.1,2.4l3.4,3.5H381.5z M375.4,136.4c0.6,0,1.1-0.1,1.7-0.3c0.5-0.2,1-0.5,1.5-0.9
			l-4.3-4.6c-0.6,0.5-1.2,0.9-1.6,1.4c-0.4,0.5-0.6,1.1-0.6,1.7c0,0.4,0.1,0.8,0.3,1.1c0.2,0.3,0.4,0.6,0.7,0.9
			c0.3,0.2,0.7,0.4,1.1,0.6C374.5,136.3,375,136.4,375.4,136.4z M373.1,125.1c0,0.2,0,0.3,0.1,0.5c0,0.1,0.1,0.3,0.2,0.5
			c0.1,0.2,0.3,0.4,0.5,0.6c0.2,0.2,0.5,0.5,0.8,0.9c0.7-0.5,1.3-0.9,1.7-1.3c0.4-0.4,0.6-0.9,0.6-1.4c0-0.5-0.2-0.9-0.5-1.2
			c-0.4-0.3-0.8-0.5-1.4-0.5c-0.6,0-1.1,0.2-1.5,0.6C373.3,124.1,373.1,124.5,373.1,125.1z"/>
		<path class="st0" d="M394.9,138.2v-16.8h7.3c0.8,0,1.5,0.2,2.1,0.5c0.6,0.3,1.2,0.7,1.6,1.2c0.5,0.5,0.8,1.1,1.1,1.7
			c0.3,0.7,0.4,1.3,0.4,2c0,0.6-0.1,1.1-0.2,1.6c-0.2,0.5-0.4,1-0.7,1.4c-0.3,0.4-0.6,0.8-1,1.1c-0.4,0.3-0.9,0.6-1.3,0.7l3.9,6.4
			h-3l-3.6-5.8h-3.9v5.8H394.9z M397.5,130h4.6c0.4,0,0.7-0.1,1-0.2c0.3-0.2,0.6-0.4,0.8-0.7c0.2-0.3,0.4-0.6,0.5-1
			c0.1-0.4,0.2-0.8,0.2-1.2c0-0.4-0.1-0.8-0.2-1.2c-0.1-0.4-0.3-0.7-0.6-1c-0.2-0.3-0.5-0.5-0.8-0.7c-0.3-0.2-0.7-0.2-1-0.2h-4.5
			V130z"/>
		<path class="st0" d="M411.1,123.8V121h2.6v2.9H411.1z M411.1,138.2v-12.3h2.6v12.3H411.1z"/>
		<path class="st0" d="M421.1,138.4c-0.6,0-1.2-0.1-1.7-0.3c-0.5-0.2-1-0.5-1.3-0.8c-0.4-0.3-0.7-0.8-0.9-1.2
			c-0.2-0.5-0.3-1-0.3-1.5c0-0.6,0.1-1.1,0.4-1.6c0.3-0.5,0.6-0.9,1.1-1.2c0.5-0.3,1-0.6,1.7-0.8c0.6-0.2,1.3-0.3,2.1-0.3
			c0.6,0,1.2,0.1,1.7,0.2c0.6,0.1,1.1,0.2,1.5,0.4v-0.8c0-0.9-0.3-1.6-0.8-2.1c-0.5-0.5-1.3-0.8-2.2-0.8c-0.7,0-1.3,0.1-1.9,0.4
			c-0.6,0.2-1.3,0.6-2,1.1l-0.8-1.7c1.6-1.1,3.2-1.6,5-1.6c1.7,0,3,0.4,4,1.3c0.9,0.9,1.4,2.1,1.4,3.7v4.5c0,0.6,0.2,0.8,0.7,0.8
			v2.2c-0.3,0-0.5,0.1-0.6,0.1c-0.2,0-0.4,0-0.5,0c-0.5,0-0.9-0.1-1.2-0.4c-0.3-0.3-0.4-0.6-0.5-1l-0.1-0.8c-0.6,0.7-1.2,1.3-2,1.7
			C422.9,138.2,422.1,138.4,421.1,138.4z M421.8,136.5c0.6,0,1.2-0.1,1.8-0.3c0.6-0.2,1-0.5,1.3-1c0.3-0.3,0.5-0.6,0.5-0.9v-1.6
			c-0.4-0.2-0.9-0.3-1.4-0.4c-0.5-0.1-1-0.1-1.5-0.1c-0.9,0-1.7,0.2-2.3,0.6c-0.6,0.4-0.9,0.9-0.9,1.6c0,0.6,0.2,1.1,0.7,1.5
			C420.5,136.3,421.1,136.5,421.8,136.5z"/>
		<path class="st0" d="M444.1,138.4c-0.8,0-1.6-0.2-2.3-0.5c-0.7-0.3-1.3-0.8-1.8-1.4c-0.5-0.6-0.9-1.3-1.2-2
			c-0.3-0.8-0.4-1.6-0.4-2.5c0-0.9,0.1-1.7,0.4-2.4c0.3-0.8,0.7-1.4,1.2-2c0.5-0.6,1.1-1,1.7-1.4c0.7-0.3,1.4-0.5,2.2-0.5
			c1,0,1.9,0.2,2.6,0.7s1.3,1.1,1.8,1.8V121h2.6v14.2c0,0.3,0.1,0.5,0.2,0.6c0.1,0.1,0.3,0.2,0.6,0.2v2.2c-0.3,0-0.5,0.1-0.6,0.1
			c-0.2,0-0.3,0-0.4,0c-0.5,0-0.9-0.1-1.3-0.4c-0.3-0.3-0.5-0.6-0.5-1l0-0.9c-0.5,0.8-1.1,1.4-1.9,1.8
			C446,138.2,445.1,138.4,444.1,138.4z M444.8,136.2c0.4,0,0.8-0.1,1.1-0.2c0.4-0.1,0.7-0.3,1-0.5c0.3-0.2,0.6-0.5,0.8-0.8
			s0.4-0.6,0.5-1v-3.2c-0.1-0.4-0.3-0.8-0.6-1.1s-0.6-0.6-0.9-0.8c-0.3-0.2-0.7-0.4-1.1-0.5c-0.4-0.1-0.7-0.2-1.1-0.2
			c-0.5,0-1,0.1-1.4,0.4c-0.4,0.2-0.8,0.6-1.1,0.9c-0.3,0.4-0.6,0.8-0.7,1.3c-0.2,0.5-0.3,1-0.3,1.6c0,0.6,0.1,1.1,0.3,1.6
			c0.2,0.5,0.5,0.9,0.8,1.3c0.3,0.4,0.7,0.7,1.2,0.9C443.8,136.1,444.3,136.2,444.8,136.2z"/>
		<path class="st0" d="M455.3,126.6l0.5-2.8H455v-2.9h2.5v3l-0.8,2.8H455.3z"/>
		<path class="st0" d="M473.2,135.9v2.3h-11.5v-16.8H473v2.3h-8.6v4.8h7.5v2.2h-7.5v5.1H473.2z M468.2,119.7l-1.7-0.5l1.3-2.6h2.5
			L468.2,119.7z"/>
		<path class="st0" d="M483.3,137.6c-0.3,0.2-0.8,0.3-1.4,0.5s-1.2,0.3-1.9,0.3c-0.4,0-0.8-0.1-1.2-0.2c-0.4-0.1-0.7-0.3-1-0.5
			c-0.3-0.2-0.5-0.5-0.6-0.9c-0.2-0.4-0.2-0.8-0.2-1.3v-7.7h-1.6v-2h1.6v-4.1h2.6v4.1h2.7v2h-2.7v6.9c0,0.4,0.2,0.8,0.4,1
			c0.2,0.2,0.5,0.3,0.9,0.3c0.4,0,0.7-0.1,1-0.2c0.3-0.1,0.6-0.2,0.7-0.3L483.3,137.6z"/>
		<path class="st0" d="M491.4,138.4c-1,0-1.8-0.2-2.6-0.5s-1.5-0.8-2-1.4c-0.6-0.6-1-1.3-1.3-2c-0.3-0.8-0.5-1.6-0.5-2.5
			s0.2-1.7,0.5-2.5c0.3-0.8,0.7-1.5,1.3-2.1c0.6-0.6,1.2-1.1,2-1.4c0.8-0.3,1.7-0.5,2.6-0.5c1,0,1.8,0.2,2.6,0.5
			c0.8,0.3,1.4,0.8,2,1.4c0.6,0.6,1,1.2,1.3,2c0.3,0.8,0.4,1.6,0.4,2.4c0,0.2,0,0.4,0,0.5c0,0.2,0,0.3,0,0.4h-9.9
			c0,0.6,0.2,1,0.4,1.5c0.2,0.4,0.5,0.8,0.8,1.1c0.3,0.3,0.7,0.6,1.2,0.7c0.4,0.2,0.9,0.3,1.4,0.3c0.3,0,0.7,0,1-0.1
			c0.3-0.1,0.6-0.2,0.9-0.4c0.3-0.2,0.5-0.4,0.8-0.6c0.2-0.2,0.4-0.5,0.5-0.8l2.2,0.6c-0.4,0.9-1.1,1.7-2.1,2.3
			S492.7,138.4,491.4,138.4z M495.2,131.1c0-0.5-0.2-1-0.4-1.4c-0.2-0.4-0.5-0.8-0.8-1.1c-0.3-0.3-0.7-0.5-1.2-0.7
			c-0.4-0.2-0.9-0.3-1.4-0.3s-0.9,0.1-1.4,0.3c-0.4,0.2-0.8,0.4-1.1,0.7c-0.3,0.3-0.6,0.7-0.8,1.1c-0.2,0.4-0.3,0.9-0.4,1.4H495.2z"
			/>
		<path class="st0" d="M500.9,121h2.6v13.7c0,0.5,0.1,0.8,0.4,1.1c0.2,0.3,0.6,0.4,1,0.4c0.2,0,0.4,0,0.6-0.1
			c0.2-0.1,0.4-0.1,0.6-0.2l0.4,2c-0.4,0.2-0.8,0.3-1.3,0.4c-0.5,0.1-1,0.2-1.4,0.2c-0.9,0-1.6-0.2-2.1-0.7
			c-0.5-0.5-0.7-1.2-0.7-2.1V121z"/>
	</g>
	<g>
		<path class="st1" d="M42.8,21.9c-0.2-0.4-0.4-0.7-0.5-1c-2.3-4.7-1.5-7.3-0.7-9.5c0.2-0.5,0.4-1,0.6-1.5c0.9-2.1,0.7-4.7-0.6-6.7
			c-0.7-1.1-1.7-1.9-2.8-2.4c0,0,0,0,0,0l0,0c-2.2-1.1-4.9-1-7.1,0.5c-1.3,0.9-2.3,2.1-2.8,3.5l0,0c0,0.1,0,0.1-0.1,0.2
			c0,0.1-0.1,0.2-0.1,0.2c-0.8,2.4-0.1,4.9,1.3,7.1c2.2,3.6,6.4,6.8,9.5,8.8c1,0.6,1.9,1.2,2.6,1.6c0.6,0.3,1,0.6,1.3,0.7
			c0.1,0.1,0.2-0.1,0.2-0.2C43.3,22.8,43.1,22.4,42.8,21.9z"/>
		<path class="st2" d="M56.1,12.2C56.1,12.2,56.1,12.2,56.1,12.2L56.1,12.2c0-0.7-0.2-1.3-0.6-1.8c-0.3-0.4-0.7-0.8-1.2-1.1
			c-0.7-0.4-1.4-0.5-2.1-0.3l0,0c0,0-0.1,0-0.1,0c0,0-0.1,0-0.1,0c-1.1,0.2-1.9,0.9-2.5,1.8c-1.8,2.7-1.8,7.6-1.8,8.7
			c0,0.1,0.1,0.1,0.1,0c2.1-3.7,3.9-3.4,5.3-3.7c1.1-0.1,2.1-0.8,2.7-1.8C56,13.4,56.1,12.8,56.1,12.2z"/>
	</g>
	<path class="st3" d="M78.4,20.4c-5.3,0-10.4,1.3-14.8,3.5c-4,2-7.6,4.9-10.5,8.3c-2.1,2.6-3.9,5.5-5.2,8.6
		c-1.3,3.3-2.2,6.8-2.4,10.6c0,0.6-0.1,1.2-0.1,1.8c0,15.5,10.8,28.6,25.3,32c0.7-2.4,1.2-5,1.2-7.7c0-0.5,0-1,0-1.4
		c-10-2.8-17.3-12-17.3-22.9c0-0.1,0-0.2,0-0.3c0-3.7,1-7.2,2.5-10.4c1.5-2.9,3.5-5.4,5.9-7.5c3.5-2.9,7.8-4.9,12.6-5.4
		c0.9-0.1,1.8-0.2,2.7-0.2c13.1,0,23.8,10.7,23.8,23.8c0,3.3-0.7,6.4-1.9,9.2c1.2,4.2,1.9,8.7,2,13.3c5.5-5.9,9-13.8,9-22.5
		C111.3,35.1,96.5,20.4,78.4,20.4z"/>
	<path class="st4" d="M91.5,73.1c-0.4-4.1-1.3-8-2.7-11.7c-3.1-8.1-8.4-15.1-15.2-20.3c-3,1.2-5.4,3.4-6.9,6.3
		c6.6,4.5,11.6,11.1,14.1,18.9c1.1,3.3,1.7,6.8,1.8,10.5c0,0.3,0,0.6,0,0.9c0,2.9-0.3,5.7-1,8.4c-0.9,3.8-2.4,7.5-4.4,10.7
		c-6.5,10.6-18.1,17.6-31.4,17.6c-20.3,0-36.8-16.5-36.8-36.8c0-17,11.6-31.3,27.3-35.5c0.9-3.5,2.3-6.9,4.1-10
		C17.7,34.7,0,54.1,0,77.6c0,25.3,20.6,45.9,45.9,45.9C64.7,123.4,81,112,88,95.7c1.6-3.8,2.8-7.9,3.3-12.2c0.2-1.9,0.4-3.9,0.4-5.9
		C91.7,76.1,91.6,74.6,91.5,73.1z"/>
	<g>
		<path class="st0" d="M176.3,75.4c0.1,5.6-1.4,10.4-4.4,14.4c-2,2.7-4.8,4.6-8.4,5.7c-1.9,0.6-4.2,0.9-6.8,0.9
			c-4.8,0-8.7-1.2-11.8-3.5c-2.6-1.9-4.7-4.6-6.2-7.9c-1.5-3.3-2.4-7.1-2.7-11.4l11.6-0.8c0.5,4.7,1.8,8.1,3.7,10.2
			c1.5,1.6,3.1,2.4,5,2.3c2.7-0.1,4.8-1.4,6.4-3.9c0.8-1.2,1.2-3,1.2-5.3c0-3.4-1.5-6.7-4.6-10c-2.4-2.3-6-5.7-10.8-10.2
			c-4-3.9-6.9-7.4-8.6-10.5c-1.8-3.5-2.7-7.3-2.7-11.3c0-7.3,2.5-12.9,7.4-16.7c3-2.3,6.8-3.4,11.3-3.4c4.3,0,8,1,11.1,2.9
			c2.4,1.5,4.3,3.6,5.8,6.3c1.5,2.7,2.4,5.8,2.7,9.3L164,34.5c-0.3-3.3-1.3-5.9-2.8-7.7c-1.1-1.3-2.7-2-4.8-2c-2.2,0-3.9,1-5.1,3
			c-0.9,1.6-1.4,3.6-1.4,5.9c0,3.7,1.6,7.4,4.8,11.3c1.2,1.5,3,3.2,5.4,5.2c2.8,2.4,4.7,4,5.6,5c3,3,5.3,6,7,8.9
			c0.8,1.4,1.4,2.6,1.9,3.8C175.6,70.6,176.2,73.1,176.3,75.4z"/>
		<path class="st0" d="M201.6,77l-3,18.5H186l13.7-80.7h16.7L230,95.5h-12.8L214.3,77H201.6z M208,33.3l-4.5,31.8h9L208,33.3z"/>
		<path class="st0" d="M259.1,96.5c-5.4,0-9.9-1.9-13.7-5.7c-3.8-3.8-5.6-8.3-5.6-13.6v-44c0-5.4,1.9-9.9,5.7-13.7
			c3.8-3.8,8.3-5.6,13.7-5.6c5.4,0,9.9,1.9,13.7,5.7c3.7,3.8,5.6,8.3,5.6,13.7v9.2h-12.6V33c0-1.9-0.7-3.6-2.1-5
			c-1.4-1.4-3-2.1-5-2.1s-3.6,0.7-4.9,2.1c-1.4,1.4-2,3-2,5v44.2c0,1.9,0.7,3.6,2,4.9c1.4,1.4,3,2,4.9,2s3.6-0.7,5-2
			c1.4-1.3,2.1-3,2.1-4.9V61.3H259V49.1h19.4v28.2c0,5.4-1.9,9.9-5.7,13.7C268.9,94.7,264.4,96.5,259.1,96.5z"/>
		<path class="st0" d="M289.5,95.5V14.8h34.6V27h-22.5v22h16.4v12.2h-16.4v22h22.5v12.2H289.5z"/>
	</g>
	<g>
		<path class="st1" d="M145.3,67.6c-0.2-0.1-0.4-0.3-0.5-0.4c-2.5-1.6-4-1.4-5.2-1.1c-0.3,0.1-0.6,0.1-0.9,0.2
			c-1.3,0.3-2.6,0.1-3.7-0.9c-0.6-0.5-0.9-1.1-1.2-1.7c0,0,0,0,0,0l0,0c-0.4-1.3-0.2-2.8,0.8-3.9c0.6-0.7,1.4-1.1,2.2-1.3l0,0
			c0,0,0.1,0,0.1,0c0,0,0.1,0,0.1,0c1.4-0.2,2.7,0.3,3.9,1.3c1.8,1.5,3.3,4.1,4.2,6c0.3,0.6,0.5,1.1,0.7,1.6
			c0.1,0.3,0.2,0.6,0.3,0.8c0,0.1-0.1,0.1-0.1,0.1C145.8,67.9,145.6,67.7,145.3,67.6z"/>
		<path class="st2" d="M132.1,72.9C132.1,72.9,132.1,72.9,132.1,72.9L132.1,72.9c-0.4-0.1-0.7-0.3-0.9-0.6c-0.2-0.2-0.4-0.5-0.5-0.8
			c-0.1-0.4-0.1-0.8,0.1-1.2l0,0c0,0,0,0,0,0c0,0,0,0,0-0.1c0.2-0.6,0.7-0.9,1.3-1.1c1.7-0.6,4.4-0.1,5,0c0,0,0,0.1,0,0.1
			c-2.3,0.7-2.4,1.7-2.7,2.5c-0.2,0.6-0.7,1.1-1.3,1.3C132.7,73,132.4,72.9,132.1,72.9z"/>
	</g>
</g>
</svg>
